<?xml version="1.0" standalone="no"?>
<!DOCTYPE svg PUBLIC "-//W3C//DTD SVG 20010904//EN"
 "http://www.w3.org/TR/2001/REC-SVG-20010904/DTD/svg10.dtd">
<svg version="1.0" xmlns="http://www.w3.org/2000/svg"
 width="1024.000000pt" height="1024.000000pt" viewBox="0 0 1024.000000 1024.000000"
 preserveAspectRatio="xMidYMid meet">
<metadata>
Created by potrace 1.14, written by Peter Selinger 2001-2017
</metadata>
<g transform="translate(0.000000,1024.000000) scale(0.100000,-0.100000)"
fill="#000000" stroke="none">
<path d="M2597 9455 c-74 -19 -127 -62 -162 -130 l-30 -59 -2 -975 c0 -537 -2
-980 -2 -986 -1 -6 -61 -10 -159 -11 -181 -1 -240 -15 -296 -69 -41 -39 -74
-101 -80 -147 -3 -18 -5 -344 -5 -724 l-1 -691 -161 -1 c-230 -1 -297 -30
-356 -149 l-28 -57 0 -983 0 -983 -155 -1 c-183 -1 -188 -1 -251 -36 -55 -29
-90 -70 -118 -136 -18 -43 -19 -88 -20 -1170 0 -893 3 -1137 13 -1176 24 -94
91 -163 181 -188 57 -16 1432 -15 1437 1 2 6 3 617 3 1359 l-1 1347 271 0 271
0 -1 -1351 c0 -743 2 -1355 5 -1359 3 -5 309 -8 680 -7 l675 2 1 705 c0 560 3
714 14 748 20 62 93 135 160 157 49 16 103 18 634 18 320 -1 592 -3 606 -6 83
-16 158 -77 193 -156 20 -45 21 -61 22 -756 l0 -710 678 -1 c622 -2 677 -1
678 15 3 53 4 2678 1 2689 -3 9 -67 12 -273 12 l-269 0 0 1085 c0 861 3 1085
13 1086 58 3 518 0 524 -4 4 -3 8 -492 7 -1086 l0 -1081 271 0 271 0 0 -1351
c-1 -743 1 -1354 4 -1359 3 -4 322 -8 710 -7 788 0 757 -3 832 70 22 22 50 60
61 85 l22 47 2 1135 c3 1240 5 1193 -55 1276 -16 21 -53 53 -83 69 -53 30 -56
30 -229 33 l-175 4 0 956 c1 694 -2 971 -11 1010 -22 98 -87 166 -185 192 -25
7 -112 12 -196 13 l-152 0 -1 697 c0 394 -4 710 -9 728 -6 18 -10 35 -10 37
-1 13 -32 62 -53 86 -61 68 -128 85 -325 84 -90 0 -143 4 -144 10 0 5 -2 449
-3 985 -1 973 -1 975 -23 1022 -46 101 -129 151 -249 151 -121 0 -214 -61
-252 -167 -10 -27 -16 -87 -18 -176 -1 -74 -2 -149 -3 -165 l-1 -30 -534 0
c-294 0 -538 3 -541 7 -4 4 -8 78 -10 165 -2 157 -9 202 -41 252 -86 136 -307
157 -423 40 -64 -63 -75 -104 -77 -289 -1 -91 -3 -167 -3 -170 -2 -10 -1081
-5 -1082 5 0 5 -2 82 -3 170 -3 172 -10 202 -61 270 -15 19 -52 47 -83 62
-112 55 -270 25 -337 -62 -57 -76 -61 -98 -65 -415 l0 -35 -532 1 c-293 1
-537 2 -543 3 -6 1 -10 63 -10 164 -1 103 -6 175 -14 199 -14 43 -62 105 -99
130 -58 39 -158 53 -235 33z m1434 -2185 c1 -32 1 -1547 0 -1581 l-1 -26 -267
0 -268 0 -3 -1087 -2 -1086 -272 2 -272 3 0 1083 c-1 955 1 1082 14 1083 8 0
130 2 270 2 l255 2 3 815 2 815 270 0 270 0 1 -25z m2719 -791 l0 -816 -270 0
-270 -1 -1 37 c-1 45 -1 1537 0 1571 l1 25 270 0 270 0 0 -816z m-1360 235
c30 -17 67 -47 83 -66 52 -64 55 -99 55 -562 l0 -423 -409 0 -408 0 1 431 c1
497 1 501 79 577 73 71 108 79 344 76 l200 -2 55 -31z m97 -1887 c32 -12 69
-29 80 -37 38 -28 80 -104 89 -160 5 -30 9 -298 9 -595 l-1 -540 -544 0 -544
0 0 570 0 570 26 56 c37 80 81 118 173 147 17 5 170 9 341 10 294 0 314 -1
371 -21z"/>
</g>
</svg>
